<svg width="32" height="32" viewBox="0 0 32 32" fill="none" xmlns="http://www.w3.org/2000/svg">
<path d="M13.3333 2.66667H3.99999C3.26361 2.66667 2.66666 3.26363 2.66666 4.00001V13.3333C2.66666 14.0697 3.26361 14.6667 3.99999 14.6667H13.3333C14.0697 14.6667 14.6667 14.0697 14.6667 13.3333V4.00001C14.6667 3.26363 14.0697 2.66667 13.3333 2.66667Z" fill="#C4320A"/>
<path d="M13.3333 17.3333H3.99999C3.26361 17.3333 2.66666 17.9303 2.66666 18.6667V28C2.66666 28.7364 3.26361 29.3333 3.99999 29.3333H13.3333C14.0697 29.3333 14.6667 28.7364 14.6667 28V18.6667C14.6667 17.9303 14.0697 17.3333 13.3333 17.3333Z" fill="#FD853A"/>
<path d="M28 2.66667H18.6667C17.9303 2.66667 17.3333 3.26363 17.3333 4.00001V13.3333C17.3333 14.0697 17.9303 14.6667 18.6667 14.6667H28C28.7364 14.6667 29.3333 14.0697 29.3333 13.3333V4.00001C29.3333 3.26363 28.7364 2.66667 28 2.66667Z" fill="#FD853A"/>
<path d="M28 17.3333H18.6667C17.9303 17.3333 17.3333 17.9303 17.3333 18.6667V28C17.3333 28.7364 17.9303 29.3333 18.6667 29.3333H28C28.7364 29.3333 29.3333 28.7364 29.3333 28V18.6667C29.3333 17.9303 28.7364 17.3333 28 17.3333Z" fill="#FD853A"/>
</svg>
