<svg width="18" height="18" viewBox="0 0 18 18" fill="none" xmlns="http://www.w3.org/2000/svg">
<path fill-rule="evenodd" clip-rule="evenodd" d="M9 1.5C6.51472 1.5 4.5 3.51472 4.5 6C4.5 8.48528 6.51472 10.5 9 10.5C9.87288 10.5 10.6877 10.2515 11.3776 9.82132C11.4149 9.79183 11.4551 9.76575 11.4979 9.74361C12.7051 8.93653 13.5 7.5611 13.5 6C13.5 3.51472 11.4853 1.5 9 1.5ZM12.6462 10.7654C14.0772 9.66878 15 7.94215 15 6C15 2.68629 12.3137 0 9 0C5.68629 0 3 2.68629 3 6C3 7.94253 3.92313 9.66946 5.35462 10.766L4.50653 17.1513C4.46861 17.4367 4.59752 17.7187 4.83822 17.8768C5.07893 18.035 5.38892 18.0413 5.63587 17.8931L9 15.8746L12.3641 17.8931C12.6111 18.0413 12.921 18.035 13.1617 17.8769C13.4024 17.7188 13.5314 17.4368 13.4935 17.1514L12.6462 10.7654ZM11.2396 11.5681C10.5476 11.8467 9.7917 12 9 12C8.20861 12 7.453 11.8468 6.76122 11.5684L6.19833 15.8064L8.61413 14.3569C8.85164 14.2144 9.14836 14.2144 9.38587 14.3569L11.8019 15.8065L11.2396 11.5681Z" fill="#344054"/>
</svg>
