<svg width="18" height="18" viewBox="0 0 18 18" fill="none" xmlns="http://www.w3.org/2000/svg">
<path fill-rule="evenodd" clip-rule="evenodd" d="M4.875 2.25C4.57663 2.25 4.29048 2.36853 4.0795 2.5795C3.86853 2.79048 3.75 3.07663 3.75 3.375V12.2533C4.09832 12.0881 4.48212 12 4.875 12H14.25V2.25H4.875ZM15.75 1.5C15.75 1.08579 15.4142 0.75 15 0.75H4.875C4.17881 0.75 3.51113 1.02656 3.01884 1.51884C2.52656 2.01113 2.25 2.67881 2.25 3.375V14.625C2.25 15.3212 2.52656 15.9889 3.01884 16.4812C3.51113 16.9734 4.17881 17.25 4.875 17.25H15C15.4142 17.25 15.75 16.9142 15.75 16.5V1.5ZM14.25 13.5H4.875C4.57663 13.5 4.29048 13.6185 4.0795 13.8295C3.86853 14.0405 3.75 14.3266 3.75 14.625C3.75 14.9234 3.86853 15.2095 4.0795 15.4205C4.29048 15.6315 4.57663 15.75 4.875 15.75H14.25V13.5Z" fill="#344054"/>
</svg>
