<svg width="20" height="20" viewBox="0 0 20 20" fill="none" xmlns="http://www.w3.org/2000/svg">
<path fill-rule="evenodd" clip-rule="evenodd" d="M9.48822 1.00885C9.78915 0.7748 10.2105 0.7748 10.5115 1.00885L18.0115 6.84219C18.2144 7.00007 18.3332 7.24282 18.3332 7.49998V16.6666C18.3332 17.3297 18.0698 17.9656 17.6009 18.4344C17.1321 18.9033 16.4962 19.1666 15.8332 19.1666H4.1665C3.50346 19.1666 2.86758 18.9033 2.39874 18.4344C1.9299 17.9656 1.6665 17.3297 1.6665 16.6666V7.49998C1.6665 7.24282 1.78523 7.00007 1.98822 6.84219L9.48822 1.00885ZM8.33317 17.5H11.6665V10.8333H8.33317V17.5ZM13.3332 17.5V9.99998C13.3332 9.53974 12.9601 9.16665 12.4998 9.16665H7.49984C7.0396 9.16665 6.6665 9.53974 6.6665 9.99998V17.5H4.1665C3.94549 17.5 3.73353 17.4122 3.57725 17.2559C3.42097 17.0996 3.33317 16.8877 3.33317 16.6666V7.90755L9.99984 2.72236L16.6665 7.90755V16.6666C16.6665 16.8877 16.5787 17.0996 16.4224 17.2559C16.2661 17.4122 16.0542 17.5 15.8332 17.5H13.3332Z" fill="#344054"/>
</svg>
