<svg width="40" height="40" viewBox="0 0 40 40" fill="none" xmlns="http://www.w3.org/2000/svg">
<rect width="40" height="40" rx="6" fill="white"/>
<path fill-rule="evenodd" clip-rule="evenodd" d="M14.1665 13.3334C13.9455 13.3334 13.7335 13.4212 13.5772 13.5774C13.421 13.7337 13.3332 13.9457 13.3332 14.1667V25.4882L15.2439 23.5774C15.4002 23.4212 15.6122 23.3334 15.8332 23.3334H25.8332C26.0542 23.3334 26.2661 23.2456 26.4224 23.0893C26.5787 22.933 26.6665 22.721 26.6665 22.5V14.1667C26.6665 13.9457 26.5787 13.7337 26.4224 13.5774C26.2661 13.4212 26.0542 13.3334 25.8332 13.3334H14.1665ZM12.3987 12.3989C12.8676 11.9301 13.5035 11.6667 14.1665 11.6667H25.8332C26.4962 11.6667 27.1321 11.9301 27.6009 12.3989C28.0698 12.8678 28.3332 13.5036 28.3332 14.1667V22.5C28.3332 23.1631 28.0698 23.7989 27.6009 24.2678C27.1321 24.7366 26.4962 25 25.8332 25H16.1783L13.0891 28.0893C12.8508 28.3276 12.4923 28.3989 12.1809 28.2699C11.8695 28.1409 11.6665 27.8371 11.6665 27.5V14.1667C11.6665 13.5036 11.9299 12.8678 12.3987 12.3989Z" fill="#344054"/>
</svg>
