<svg width="18" height="18" viewBox="0 0 18 18" fill="none" xmlns="http://www.w3.org/2000/svg">
<path fill-rule="evenodd" clip-rule="evenodd" d="M3 3C2.58579 3 2.25 3.33579 2.25 3.75V11.25C2.25 11.6642 2.58579 12 3 12H15C15.4142 12 15.75 11.6642 15.75 11.25V3.75C15.75 3.33579 15.4142 3 15 3H3ZM9.75 13.5H15C16.2426 13.5 17.25 12.4926 17.25 11.25V3.75C17.25 2.50736 16.2426 1.5 15 1.5H3C1.75736 1.5 0.75 2.50736 0.75 3.75V11.25C0.75 12.4926 1.75736 13.5 3 13.5H8.25V15H6C5.58579 15 5.25 15.3358 5.25 15.75C5.25 16.1642 5.58579 16.5 6 16.5H12C12.4142 16.5 12.75 16.1642 12.75 15.75C12.75 15.3358 12.4142 15 12 15H9.75V13.5Z" fill="#344054"/>
</svg>
