<svg width="36" height="36" viewBox="0 0 36 36" fill="none" xmlns="http://www.w3.org/2000/svg">
<path fill-rule="evenodd" clip-rule="evenodd" d="M16.3335 12.1667C16.3335 11.2462 17.0797 10.5 18.0002 10.5C18.9206 10.5 19.6668 11.2462 19.6668 12.1667C19.6668 13.0871 18.9206 13.8333 18.0002 13.8333C17.0797 13.8333 16.3335 13.0871 16.3335 12.1667ZM16.3335 18C16.3335 17.0795 17.0797 16.3333 18.0002 16.3333C18.9206 16.3333 19.6668 17.0795 19.6668 18C19.6668 18.9205 18.9206 19.6667 18.0002 19.6667C17.0797 19.6667 16.3335 18.9205 16.3335 18ZM16.3335 23.8333C16.3335 22.9129 17.0797 22.1667 18.0002 22.1667C18.9206 22.1667 19.6668 22.9129 19.6668 23.8333C19.6668 24.7538 18.9206 25.5 18.0002 25.5C17.0797 25.5 16.3335 24.7538 16.3335 23.8333Z" fill="#344054"/>
</svg>
