<svg width="32" height="32" viewBox="0 0 32 32" fill="none" xmlns="http://www.w3.org/2000/svg">
<path d="M6.66666 16H25.3333V23.6667C25.3333 25.3235 23.9902 26.6667 22.3333 26.6667H9.66665C8.0098 26.6667 6.66666 25.3235 6.66666 23.6667V16Z" fill="#36BFFA"/>
<rect x="26.6667" y="12.2669" width="2.66667" height="8" rx="1.33333" fill="#026AA2"/>
<path d="M16.0002 21.8535C15.7662 21.8535 15.5363 21.792 15.3335 21.6751L3.33354 14.7455C2.69569 14.377 2.47726 13.5613 2.84569 12.9234C2.9627 12.7208 3.13096 12.5526 3.33354 12.4356L15.3335 5.51108C15.7464 5.2741 16.254 5.2741 16.6669 5.51108L28.6669 12.4356C29.3047 12.804 29.5232 13.6198 29.1547 14.2576C29.0377 14.4602 28.8695 14.6284 28.6669 14.7455L16.6669 21.6751C16.4641 21.792 16.2342 21.8535 16.0002 21.8535Z" fill="#0086C9"/>
</svg>
