<svg width="40" height="40" viewBox="0 0 40 40" fill="none" xmlns="http://www.w3.org/2000/svg">
<rect width="40" height="40" rx="6" fill="#FFFAEB"/>
<path fill-rule="evenodd" clip-rule="evenodd" d="M17.0833 13.3334C15.7026 13.3334 14.5833 14.4526 14.5833 15.8334C14.5833 17.2141 15.7026 18.3334 17.0833 18.3334C18.464 18.3334 19.5833 17.2141 19.5833 15.8334C19.5833 14.4526 18.464 13.3334 17.0833 13.3334ZM12.9167 15.8334C12.9167 13.5322 14.7821 11.6667 17.0833 11.6667C19.3845 11.6667 21.25 13.5322 21.25 15.8334C21.25 18.1345 19.3845 20 17.0833 20C14.7821 20 12.9167 18.1345 12.9167 15.8334ZM29.7559 16.9108C30.0814 17.2362 30.0814 17.7638 29.7559 18.0893L26.4226 21.4226C26.0972 21.748 25.5695 21.748 25.2441 21.4226L23.5774 19.7559C23.252 19.4305 23.252 18.9029 23.5774 18.5774C23.9028 18.252 24.4305 18.252 24.7559 18.5774L25.8333 19.6548L28.5774 16.9108C28.9028 16.5853 29.4305 16.5853 29.7559 16.9108ZM11.2204 22.8871C12.0018 22.1057 13.0616 21.6667 14.1667 21.6667H20C21.1051 21.6667 22.1649 22.1057 22.9463 22.8871C23.7277 23.6685 24.1667 24.7283 24.1667 25.8334V27.5C24.1667 27.9603 23.7936 28.3334 23.3333 28.3334C22.8731 28.3334 22.5 27.9603 22.5 27.5V25.8334C22.5 25.1703 22.2366 24.5344 21.7678 24.0656C21.2989 23.5967 20.663 23.3334 20 23.3334H14.1667C13.5036 23.3334 12.8677 23.5967 12.3989 24.0656C11.9301 24.5344 11.6667 25.1703 11.6667 25.8334V27.5C11.6667 27.9603 11.2936 28.3334 10.8333 28.3334C10.3731 28.3334 10 27.9603 10 27.5V25.8334C10 24.7283 10.439 23.6685 11.2204 22.8871Z" fill="#DC6803"/>
</svg>
